<svg id="Layer_1" data-name="Layer 1" xmlns="http://www.w3.org/2000/svg" viewBox="0 0 841.89 255.78"><defs><style>.cls-1{fill:#2a3860;}.cls-2{fill:#fff;}</style></defs><circle class="cls-1" cx="119.55" cy="105.18" r="7.87"/><circle class="cls-1" cx="119.55" cy="128.39" r="7.87"/><circle class="cls-1" cx="119.55" cy="151.61" r="7.87"/><circle class="cls-1" cx="144.18" cy="105.18" r="7.87"/><circle class="cls-1" cx="144.18" cy="128.39" r="7.87"/><circle class="cls-1" cx="144.18" cy="151.61" r="7.87"/><circle class="cls-1" cx="168.8" cy="105.18" r="7.87"/><circle class="cls-1" cx="168.8" cy="128.39" r="7.87"/><circle class="cls-1" cx="168.8" cy="151.61" r="7.87"/><path class="cls-1" d="M204,107.3h14.46c8.93,0,15.81,3.15,15.81,12.73,0,9.22-6.88,13.41-15.81,13.41h-6.85v16.77H204Zm13.68,20c5.88,0,9.08-2.44,9.08-7.32s-3.2-6.64-9.08-6.64h-6.07v14Zm-.65,4.06,5.52-4.54L236,150.21h-8.56Z"/><path class="cls-1" d="M240.59,128.58c0-13.88,7.74-22.07,18.92-22.07s18.92,8.23,18.92,22.07S270.69,151,259.51,151,240.59,142.47,240.59,128.58Zm30,0c0-9.63-4.36-15.46-11.1-15.46s-11.1,5.83-11.1,15.46,4.35,15.81,11.1,15.81S270.61,138.22,270.61,128.58Z"/><path class="cls-1" d="M284.12,144.71l4.44-5.22a16.84,16.84,0,0,0,11.18,4.9c4.83,0,7.48-2.2,7.48-5.54,0-3.53-2.77-4.66-6.67-6.32L294.69,130c-4.23-1.76-8.68-5.11-8.68-11.38,0-6.84,6-12.1,14.41-12.1A18.8,18.8,0,0,1,313.65,112l-3.91,4.83a13.83,13.83,0,0,0-9.32-3.69c-4.07,0-6.72,1.91-6.72,5,0,3.38,3.27,4.62,6.83,6.08l5.78,2.43c5.11,2.12,8.68,5.35,8.68,11.57,0,7-5.77,12.76-15.41,12.76A22.09,22.09,0,0,1,284.12,144.71Z"/><path class="cls-1" d="M322.22,144h9.34v-27.4h-7.72v-4.75a26.88,26.88,0,0,0,9.64-3.44h5.64V144h8.22v6.17H322.22Z"/><rect class="cls-1" x="392.94" y="118.2" width="36.48" height="22.41" rx="3.82"/><path class="cls-1" d="M421.6,113v32.52a2.21,2.21,0,0,0,3.78,1.56l17.07-17.07a2.22,2.22,0,0,0,0-3.13L426.53,111A2.89,2.89,0,0,0,421.6,113Z"/><path class="cls-1" d="M352,175.59H114.18a18.08,18.08,0,0,1-18.07-18.07V99.34a18.08,18.08,0,0,1,18.07-18.07H352a18.09,18.09,0,0,1,18.07,18.07v58.18A18.09,18.09,0,0,1,352,175.59ZM114.18,87.33a12,12,0,0,0-12,12v58.18a12,12,0,0,0,12,12H352a12,12,0,0,0,12-12V99.34a12,12,0,0,0-12-12Z"/><rect class="cls-1" x="468.36" y="83.22" width="274.39" height="88.27" rx="7.45"/><path class="cls-1" d="M727.71,174.51H483.4a18.09,18.09,0,0,1-18.07-18.07V98.26A18.09,18.09,0,0,1,483.4,80.19H727.71a18.08,18.08,0,0,1,18.07,18.07v58.18A18.08,18.08,0,0,1,727.71,174.51ZM483.4,86.25a12,12,0,0,0-12,12v58.18a12,12,0,0,0,12,12H727.71a12,12,0,0,0,12-12V98.26a12,12,0,0,0-12-12Z"/><path class="cls-2" d="M579.55,107.3H594c8.92,0,15.8,3.15,15.8,12.73,0,9.22-6.88,13.41-15.8,13.41h-6.85v16.77h-7.61Zm13.67,20c5.88,0,9.08-2.44,9.08-7.32s-3.2-6.64-9.08-6.64h-6.06v14Zm-.64,4.06,5.51-4.54,13.4,23.34h-8.56Z"/><path class="cls-2" d="M616.13,128.58c0-13.88,7.74-22.07,18.92-22.07S654,114.74,654,128.58,646.24,151,635.05,151,616.13,142.47,616.13,128.58Zm30,0c0-9.63-4.36-15.46-11.11-15.46S624,119,624,128.58s4.36,15.81,11.1,15.81S646.16,138.22,646.16,128.58Z"/><path class="cls-2" d="M659.67,144.71l4.43-5.22a16.84,16.84,0,0,0,11.18,4.9c4.83,0,7.48-2.2,7.48-5.54,0-3.53-2.76-4.66-6.66-6.32L670.23,130c-4.22-1.76-8.67-5.11-8.67-11.38,0-6.84,6-12.1,14.41-12.1A18.81,18.81,0,0,1,689.2,112l-3.92,4.83a13.82,13.82,0,0,0-9.31-3.69c-4.07,0-6.72,1.91-6.72,5,0,3.38,3.26,4.62,6.82,6.08l5.79,2.43c5.1,2.12,8.67,5.35,8.67,11.57,0,7-5.77,12.76-15.4,12.76A22.09,22.09,0,0,1,659.67,144.71Z"/><path class="cls-2" d="M695.42,145.83c11.58-11.26,18.88-18.58,18.88-25,0-4.4-2.42-7.19-6.91-7.19-3.23,0-5.9,2.12-8.13,4.62l-4.2-4.15c3.8-4.12,7.64-6.48,13.33-6.48,8,0,13.2,5.06,13.2,12.8,0,7.43-6.87,15.07-15.19,23.76,2.2-.21,5-.42,7-.42h10.21v6.4H695.42Z"/><circle class="cls-2" cx="495.24" cy="105.18" r="7.87"/><circle class="cls-2" cx="495.24" cy="128.39" r="7.87"/><circle class="cls-2" cx="495.24" cy="151.61" r="7.87"/><circle class="cls-2" cx="519.87" cy="105.18" r="7.87"/><circle class="cls-2" cx="519.87" cy="128.39" r="7.87"/><circle class="cls-2" cx="519.87" cy="151.61" r="7.87"/><circle class="cls-2" cx="544.49" cy="105.18" r="7.87"/><circle class="cls-2" cx="544.49" cy="128.39" r="7.87"/><circle class="cls-2" cx="544.49" cy="151.61" r="7.87"/></svg>